<svg width="16" height="16" viewBox="0 0 16 16" fill="none" xmlns="http://www.w3.org/2000/svg">
<g clip-path="url(#clip0_18_2511)">
<path d="M8.0031 15.6299C12.2153 15.6299 15.6299 12.2153 15.6299 8.00312C15.6299 3.79094 12.2153 0.376302 8.0031 0.376302C3.79092 0.376302 0.376282 3.79094 0.376282 8.00312C0.376282 12.2153 3.79092 15.6299 8.0031 15.6299Z" fill="#4C6AB2"/>
<path d="M12.0844 12.2738C12.029 12.2434 11.9741 12.212 11.919 12.1806C11.8968 12.168 11.8743 12.1557 11.8521 12.1429C11.7005 12.055 11.5739 11.9375 11.4641 11.8024C11.3121 11.6155 11.2861 11.4119 11.3948 11.1939C11.4263 11.1308 11.477 11.0833 11.522 11.0308C12.6948 9.66342 13.0572 8.10757 12.5275 6.38464C11.8611 4.21677 9.70119 2.76272 7.30182 3.03474C6.27057 3.15165 5.35052 3.54992 4.59104 4.25942C3.23188 5.52913 2.73633 7.08717 3.11052 8.91497C3.57208 10.668 4.63939 11.7289 6.31541 12.4172C6.77866 12.5762 7.32841 12.705 7.81111 12.7831C8.17965 12.8427 8.50668 12.8584 8.87823 12.861C9.0637 12.8623 9.26001 12.8605 9.47847 12.8591C9.87668 12.8632 10.0325 12.8469 10.3076 12.8219C10.9082 12.7672 11.479 12.5944 12.0305 12.3545C12.0486 12.3466 12.0666 12.3383 12.0846 12.3304C12.1285 12.3113 12.1208 12.2938 12.0844 12.2738ZM7.22122 7.35467C7.13623 7.89589 6.68646 8.282 6.13898 8.28049C5.67729 8.27924 5.273 7.99392 5.11789 7.55996C4.96372 7.1285 5.09675 6.64449 5.44974 6.35397C5.4764 6.33202 5.50374 6.31044 5.53291 6.29219C5.59532 6.25311 5.60692 6.25732 5.61545 6.33007C5.63289 6.47872 5.67033 6.62091 5.74033 6.75369C5.99748 7.2414 6.57777 7.45898 7.09747 7.25169C7.2544 7.18909 7.24085 7.22948 7.22122 7.35467ZM8.53026 7.40353C8.52361 7.36973 8.51815 7.33536 8.51615 7.30098C8.51094 7.21299 8.52198 7.20295 8.60402 7.23801C8.8448 7.34094 9.09129 7.35831 9.34243 7.28882C9.76159 7.17285 10.0702 6.80668 10.1205 6.3741C10.1247 6.33848 10.1039 6.28516 10.1537 6.27212C10.1931 6.26177 10.2244 6.30078 10.2556 6.32386C10.6235 6.59638 10.7789 7.08918 10.636 7.52778C10.4875 7.98351 10.0748 8.28168 9.59412 8.28049C9.07279 8.27917 8.63061 7.91489 8.53026 7.40353Z" fill="#FEFEFE"/>
</g>
<defs>
<clipPath id="clip0_18_2511">
<rect width="16" height="16" fill="white"/>
</clipPath>
</defs>
</svg>
