<svg width="16" height="16" viewBox="0 0 16 16" fill="none" xmlns="http://www.w3.org/2000/svg">
<g clip-path="url(#clip0_18_2512)">
<path d="M8.00316 15.6299C12.2153 15.6299 15.63 12.2153 15.63 8.00312C15.63 3.79094 12.2153 0.376302 8.00316 0.376302C3.79098 0.376302 0.376343 3.79094 0.376343 8.00312C0.376343 12.2153 3.79098 15.6299 8.00316 15.6299Z" fill="#89AAE3"/>
<path d="M11.8527 7.62434C11.8561 7.68167 11.8211 7.72476 11.7974 7.7718C11.3979 8.56653 10.3744 9.25966 9.39083 9.25759C9.18273 9.25715 8.97487 9.25646 8.76708 9.24435C8.74732 9.24322 8.71307 9.24906 8.70944 9.25972C8.6984 9.2924 8.73032 9.3045 8.75416 9.31171C8.9839 9.38127 9.21647 9.43904 9.45418 9.47498C9.80046 9.52735 10.1454 9.52089 10.4884 9.45058C10.8419 9.37814 11.1436 9.20239 11.4225 8.98024C11.4643 8.94693 11.4948 8.89011 11.5608 8.89324C11.5369 8.94041 11.5144 8.98827 11.4891 9.03455C11.1434 9.66565 10.5891 9.98013 9.8958 10.0833C9.70538 10.1117 9.51345 10.1169 9.32134 10.1189C9.27869 10.1193 9.23598 10.1197 9.19345 10.1226C9.1794 10.1235 9.15701 10.126 9.1624 10.1483C9.16554 10.1613 9.17777 10.1767 9.18988 10.1821C9.22381 10.1972 9.2595 10.2088 9.29512 10.2197C9.37158 10.2431 9.44885 10.2637 9.52499 10.2878C9.60647 10.3137 9.61054 10.3189 9.57373 10.4007C9.43925 10.6992 9.26539 10.9733 9.05158 11.2212C8.50164 11.859 7.81247 12.2617 6.98312 12.4033C5.04211 12.7348 3.2816 11.4554 2.93187 9.61026C2.57813 7.74395 3.73614 5.97323 5.58301 5.53362C5.8539 5.46914 6.12924 5.44255 6.40778 5.4433C6.95182 5.44481 7.49623 5.45528 8.03996 5.44117C9.00836 5.41602 9.96253 5.28531 10.8917 5.00087C11.1676 4.91639 11.4337 4.80719 11.6855 4.66469C12.1066 4.42648 12.4429 4.09575 12.7262 3.70845C12.8458 3.545 12.9564 3.37491 13.0716 3.20819C13.0828 3.19195 13.0931 3.16655 13.1191 3.17627C13.1434 3.18536 13.1377 3.21133 13.137 3.23109C13.1246 3.57799 13.0923 3.92352 13.0245 4.26372C12.892 4.92805 12.6562 5.55777 12.3109 6.13875C11.7808 7.03063 11.0072 7.61864 10.0046 7.89668C9.74658 7.96824 9.47902 7.99026 9.21327 8.00286C8.8192 8.02162 8.424 8.02689 8.03318 7.95175C8.01236 7.94773 7.99091 7.94629 7.96971 7.94491C7.95485 7.94397 7.93754 7.94478 7.93578 7.96354C7.93503 7.97144 7.9445 7.98342 7.95253 7.98825C7.97059 7.9991 7.99041 8.00719 8.00991 8.01541C8.62809 8.2757 9.26715 8.42159 9.9424 8.36319C10.3695 8.32625 10.7862 8.24177 11.1845 8.07838C11.414 7.98417 11.6215 7.8566 11.7918 7.67308C11.8093 7.6542 11.8332 7.64115 11.8541 7.62535L11.8527 7.62434Z" fill="#FEFEFE"/>
</g>
<defs>
<clipPath id="clip0_18_2512">
<rect width="16" height="16" fill="white"/>
</clipPath>
</defs>
</svg>
