<svg width="16" height="16" viewBox="0 0 16 16" fill="none" xmlns="http://www.w3.org/2000/svg">
<g clip-path="url(#clip0_18_2519)">
<path d="M8.00316 15.6299C12.2153 15.6299 15.63 12.2153 15.63 8.00312C15.63 3.79094 12.2153 0.376302 8.00316 0.376302C3.79098 0.376302 0.376343 3.79094 0.376343 8.00312C0.376343 12.2153 3.79098 15.6299 8.00316 15.6299Z" fill="#006FC9"/>
<path d="M7.94575 11.2617C8.88173 11.2716 9.58407 10.8685 10.0042 10.0296C10.526 8.98792 10.115 7.71488 9.0946 7.14299C9.0707 7.12963 9.0475 7.1137 9.02191 7.10486C8.92933 7.07293 8.90029 7.0146 8.91503 6.91563C8.93115 6.80788 8.93084 6.69705 8.93034 6.58767C8.92889 6.28918 8.8086 6.03529 8.62771 5.8056C8.61805 5.79337 8.60482 5.7839 8.59328 5.77318C8.58148 5.78961 8.59152 5.80429 8.59867 5.81777C8.74782 6.09983 8.76256 6.40452 8.75353 6.71417C8.7497 6.84375 8.71 6.96098 8.65317 7.07507C8.57747 7.22723 8.46658 7.31202 8.28921 7.34263C7.27357 7.51762 6.27419 7.76687 5.27511 8.01769C4.57916 8.19243 3.87977 8.35375 3.18194 8.52096C3.15528 8.52736 3.12869 8.53495 3.10159 8.53796C3.08729 8.53953 3.06302 8.53645 3.05932 8.52817C3.05399 8.51645 3.06039 8.4965 3.06722 8.48276C3.07927 8.4583 3.09513 8.43566 3.10987 8.41258C3.65416 7.56247 4.14213 6.68005 4.61203 5.78741C4.66992 5.6774 4.74588 5.59386 4.84761 5.52192C5.65357 4.95235 6.44987 4.37006 7.19843 3.72498C7.81535 3.19336 8.372 2.60542 8.87201 1.96316C8.89559 1.93286 8.91898 1.90251 8.94344 1.87297C8.9499 1.86519 8.96069 1.85446 8.96822 1.8554C8.99086 1.85823 8.98547 1.87729 8.98277 1.8921C8.97493 1.93518 8.96602 1.97808 8.95781 2.02111C8.83281 2.6734 8.58625 3.28029 8.27441 3.86353C8.15749 4.08217 8.16132 4.08211 8.4117 4.08863C10.4218 4.14094 12.1749 5.47732 12.7518 7.40592C13.3688 9.46823 12.5028 11.6537 10.6589 12.7464C10.3797 12.9118 10.0863 13.0449 9.78014 13.1521C9.69045 13.1835 9.61449 13.1763 9.52881 13.1383C9.15287 12.9717 8.8313 12.726 8.52817 12.4549C8.1876 12.1503 7.8866 11.8101 7.64005 11.4237C7.61941 11.3914 7.59953 11.3586 7.58009 11.3256C7.555 11.2829 7.54948 11.2571 7.61734 11.2603C7.72642 11.2655 7.83618 11.2617 7.94575 11.2617ZM6.39762 5.90639C6.38846 5.8194 6.37987 5.73235 6.36983 5.64548C6.36733 5.6239 6.36061 5.60277 6.35541 5.58157C6.34531 5.54055 6.32129 5.52832 6.28391 5.54952C6.2602 5.563 6.23712 5.57787 6.21479 5.59355C5.69854 5.95488 5.27354 6.40791 4.89703 6.90898C4.83927 6.98582 4.85118 7.0062 4.95473 7.00877C5.38769 7.01937 5.77368 6.89192 6.10302 6.60698C6.31589 6.42277 6.40853 6.18619 6.39762 5.90639Z" fill="#FEFEFE"/>
<path d="M7.72687 13.247C7.29109 13.1983 6.85863 13.1317 6.43715 13.0063C5.76115 12.8052 5.19008 12.428 4.67032 11.9614C3.93404 11.3004 3.4706 10.4767 3.20623 9.53234C3.17688 9.42759 3.17794 9.42509 3.29003 9.41436C3.99425 9.34675 4.69114 9.23736 5.37611 9.05698C5.77915 8.95079 6.17304 8.81789 6.55996 8.6636C6.61082 8.64334 6.66201 8.62383 6.71362 8.60552C6.72259 8.60232 6.73608 8.60389 6.74442 8.60865C6.7633 8.61944 6.75571 8.63625 6.74762 8.64999C6.72824 8.68304 6.7071 8.71509 6.68741 8.74789C6.62531 8.85113 6.56172 8.95355 6.50188 9.05811C6.19762 9.58935 6.12242 10.1567 6.22221 10.7566C6.36001 11.5854 6.7485 12.2693 7.38398 12.8153C7.54599 12.9546 7.71025 13.0912 7.87251 13.2302C7.88556 13.2413 7.91522 13.245 7.90381 13.2719C7.90218 13.2757 7.87333 13.2679 7.85702 13.2656C7.81362 13.2593 7.77021 13.2532 7.72687 13.247Z" fill="#FEFEFE"/>
</g>
<defs>
<clipPath id="clip0_18_2519">
<rect width="16" height="16" fill="white"/>
</clipPath>
</defs>
</svg>
