<svg width="16" height="16" viewBox="0 0 16 16" fill="none" xmlns="http://www.w3.org/2000/svg">
<g clip-path="url(#clip0_18_2514)">
<path d="M8.00316 15.6299C12.2153 15.6299 15.63 12.2153 15.63 8.00312C15.63 3.79094 12.2153 0.376302 8.00316 0.376302C3.79098 0.376302 0.376343 3.79094 0.376343 8.00312C0.376343 12.2153 3.79098 15.6299 8.00316 15.6299Z" fill="#FF9741"/>
<path d="M11.449 11.6378C11.4473 11.6936 11.4098 11.7315 11.3811 11.7738C10.919 12.455 10.2952 12.9127 9.4995 13.1307C8.9611 13.2782 8.41393 13.381 7.85415 13.3407C6.44037 13.239 5.26912 12.6779 4.45683 11.4796C4.05918 10.8931 3.86343 10.232 3.81137 9.52769C3.74056 8.57051 3.94334 7.66044 4.28968 6.77558C4.32518 6.68495 4.36244 6.59494 4.4012 6.50569C4.41136 6.4823 4.41575 6.44184 4.45401 6.45257C4.4764 6.45884 4.47119 6.4907 4.47132 6.51247C4.4717 6.56973 4.4705 6.62706 4.47075 6.68432C4.47333 7.36879 4.53379 8.04567 4.73926 8.70311C4.80769 8.922 4.88891 9.13613 4.98726 9.34348C4.99874 9.36775 5.00977 9.40238 5.04471 9.39115C5.05449 9.38801 5.05857 9.34931 5.05594 9.32805C5.02132 9.04336 5.00921 8.75711 5.00281 8.47091C4.97785 7.35687 5.26147 6.35027 6.04868 5.52543C6.266 5.29776 6.49311 5.07955 6.75033 4.89447C6.95505 4.74714 7.14767 4.58469 7.3214 4.40042C7.65062 4.05125 7.81338 3.63435 7.83514 3.15836C7.84857 2.86445 7.81025 2.5755 7.75474 2.28805C7.74821 2.25437 7.74144 2.22069 7.73693 2.1867C7.73555 2.17635 7.74044 2.15621 7.7442 2.15578C7.75913 2.15402 7.7755 2.15615 7.7898 2.16117C7.79983 2.16474 7.80761 2.17516 7.81602 2.18293C8.2459 2.58347 8.63464 3.01699 8.90566 3.5446C9.14707 4.01462 9.24955 4.513 9.20941 5.04042C9.19662 5.20863 9.19825 5.21064 9.03097 5.26075C8.53542 5.40921 8.18713 5.89486 8.21021 6.43927C8.23166 6.9453 8.57293 7.39055 9.06334 7.52358C9.6817 7.69136 10.3124 7.31266 10.4804 6.67422C10.5511 6.40584 10.5253 6.14053 10.4619 5.87579C10.4259 5.7252 10.377 5.57862 10.3233 5.43349C10.3122 5.40357 10.2798 5.36418 10.3141 5.3406C10.3426 5.32097 10.3769 5.35571 10.4056 5.37277C11.0741 5.76986 11.605 6.29953 11.9021 7.02508C12.4208 8.29191 12.2858 9.49846 11.4695 10.6001C10.9382 11.3173 10.2013 11.669 9.30174 11.6573C9.19329 11.6559 9.08498 11.6397 8.97672 11.629C8.94894 11.6263 8.91344 11.6279 8.90171 11.5976C8.88885 11.5642 8.92322 11.5504 8.94392 11.5334C8.97929 11.5042 9.01749 11.4784 9.05117 11.4474C9.53117 11.0068 9.71331 10.4611 9.56905 9.82988C9.42737 9.20995 9.03543 8.7997 8.41644 8.63123C7.6118 8.41221 6.76375 8.91297 6.531 9.74044C6.36429 10.333 6.50114 10.8679 6.89001 11.3313C7.36568 11.8983 7.98593 12.1996 8.72195 12.268C9.43464 12.3342 10.112 12.1853 10.7708 11.9316C11.0002 11.8433 11.2217 11.7346 11.4468 11.6352L11.449 11.6378Z" fill="#FEFEFE"/>
</g>
<defs>
<clipPath id="clip0_18_2514">
<rect width="16" height="16" fill="white"/>
</clipPath>
</defs>
</svg>
