<svg width="16" height="16" viewBox="0 0 16 16" fill="none" xmlns="http://www.w3.org/2000/svg">
<g clip-path="url(#clip0_18_2517)">
<path d="M8.00319 15.6299C12.2154 15.6299 15.63 12.2153 15.63 8.00312C15.63 3.79094 12.2154 0.376302 8.00319 0.376302C3.79101 0.376302 0.376373 3.79094 0.376373 8.00312C0.376373 12.2153 3.79101 15.6299 8.00319 15.6299Z" fill="#FB89EB"/>
<path fill-rule="evenodd" clip-rule="evenodd" d="M4.63909 11.2952L6.44162 10.7726L7.99847 13.6192C8.00054 13.6229 8.00581 13.6229 8.00781 13.6192L9.56466 10.7726L11.3672 11.2952C11.3712 11.2964 11.375 11.2926 11.3738 11.2886L10.8511 9.52172L13.6192 8.00777C13.6229 8.00576 13.6229 8.00043 13.6192 7.99842L10.8282 6.47199L11.3738 4.62801C11.375 4.624 11.3712 4.62023 11.3672 4.62136L9.52239 5.15631L8.00781 2.38701C8.00581 2.38331 8.00047 2.38331 7.99847 2.38701L6.48389 5.15631L4.63909 4.62136C4.63508 4.62017 4.63132 4.62393 4.63251 4.62801L5.17805 6.47199L2.38711 7.99842C2.38341 8.00043 2.38341 8.00576 2.38711 8.00777L5.15522 9.52172L4.63251 11.2886C4.63132 11.2926 4.63508 11.2964 4.63909 11.2952ZM6.03782 8.02257L7.31481 8.72096L8.01321 9.99795C8.01521 10.0017 8.02054 10.0017 8.02255 9.99795L8.72094 8.72096L9.99793 8.02257C10.0016 8.02056 10.0016 8.01523 9.99793 8.01322L8.72094 7.31483L8.02255 6.03784C8.02054 6.03414 8.01521 6.03414 8.01321 6.03784L7.31481 7.31483L6.03782 8.01322C6.03419 8.01523 6.03419 8.0205 6.03782 8.02257Z" fill="white"/>
</g>
<defs>
<clipPath id="clip0_18_2517">
<rect width="16" height="16" fill="white"/>
</clipPath>
</defs>
</svg>
