<svg width="16" height="16" viewBox="0 0 16 16" fill="none" xmlns="http://www.w3.org/2000/svg">
<g clip-path="url(#clip0_18_2503)">
<path d="M8.00316 15.6299C12.2153 15.6299 15.63 12.2153 15.63 8.00309C15.63 3.79091 12.2153 0.376274 8.00316 0.376274C3.79098 0.376274 0.376343 3.79091 0.376343 8.00309C0.376343 12.2153 3.79098 15.6299 8.00316 15.6299Z" fill="#3692DC"/>
<path d="M8.03649 13.2232C6.20292 13.2021 4.78926 11.9636 4.43746 10.3505C4.27841 9.62108 4.34759 8.90827 4.61396 8.20918C5.02177 7.13898 5.55935 6.13608 6.16755 5.16943C6.69942 4.32415 7.24076 3.48482 7.77746 2.64255C7.83924 2.54558 7.89838 2.44686 7.95815 2.34858C7.9892 2.29752 8.01912 2.29803 8.04985 2.34833C8.05801 2.36169 8.06635 2.37505 8.07444 2.38841C8.64896 3.33668 9.27485 4.2524 9.85771 5.19534C10.3863 6.05034 10.877 6.92511 11.2532 7.85983C11.4017 8.22856 11.5517 8.59642 11.609 8.99407C11.7672 10.0904 11.5036 11.0731 10.7918 11.9212C10.1305 12.7091 9.27284 13.1304 8.24698 13.2086C8.16363 13.215 8.08021 13.2202 8.03649 13.2232ZM7.80223 12.0724C8.17768 12.0742 8.53249 11.9939 8.85543 11.8054C9.48722 11.4367 9.85012 10.8958 9.88048 10.1523C9.88273 10.0972 9.9045 10.0031 9.86141 9.99377C9.79216 9.97878 9.78746 10.0751 9.75892 10.1243C9.39502 10.7528 8.85117 11.1024 8.12719 11.1311C7.0011 11.1756 6.11229 10.2556 6.13738 9.1806C6.13838 9.13876 6.14051 9.09693 6.13964 9.05522C6.13932 9.04136 6.13512 9.02122 6.12559 9.0152C6.10188 9.00021 6.08858 9.02286 6.07635 9.03854C6.06029 9.05911 6.04512 9.08056 6.03169 9.10295C5.65092 9.73919 5.61529 10.3926 5.98528 11.0381C6.38324 11.7324 7.01365 12.0497 7.80223 12.0724Z" fill="#FEFEFE"/>
</g>
<defs>
<clipPath id="clip0_18_2503">
<rect width="16" height="16" fill="white"/>
</clipPath>
</defs>
</svg>
