<svg width="16" height="16" viewBox="0 0 16 16" fill="none" xmlns="http://www.w3.org/2000/svg">
<g clip-path="url(#clip0_18_2505)">
<path d="M8.00319 15.6299C12.2154 15.6299 15.63 12.2153 15.63 8.00309C15.63 3.79091 12.2154 0.376274 8.00319 0.376274C3.79101 0.376274 0.376373 3.79091 0.376373 8.00309C0.376373 12.2153 3.79101 15.6299 8.00319 15.6299Z" fill="#FF6675"/>
<path d="M11.8232 11.5065C11.7776 11.5739 11.7066 11.6121 11.6428 11.657C10.9811 12.1222 10.2462 12.4048 9.45057 12.5395C9.02225 12.6121 8.59136 12.6355 8.15897 12.6143C7.16052 12.5653 6.22498 12.3107 5.39224 11.7373C4.45745 11.0938 3.87334 10.2127 3.61907 9.10927C3.51389 8.65292 3.47958 8.18998 3.50981 7.72428C3.56231 6.91418 3.7679 6.14579 4.20808 5.45687C4.77752 4.56568 5.57595 3.96375 6.58186 3.6371C7.15757 3.45019 7.74802 3.36126 8.35271 3.38948C9.27865 3.43269 10.12 3.71845 10.8526 4.29617C11.428 4.75001 11.816 5.33758 12.0449 6.02838C12.3826 7.04753 12.3197 8.04027 11.8264 9.00165C11.6638 9.31851 11.427 9.57102 11.1685 9.80654C10.6946 10.2383 10.15 10.5418 9.51517 10.653C8.58314 10.8163 7.74012 10.618 7.02717 9.97444C6.57483 9.56619 6.31906 9.05069 6.23884 8.44651C6.18779 8.06228 6.21049 7.68245 6.33963 7.31829C6.60613 6.56684 7.15124 6.12096 7.92138 5.95732C8.39994 5.85565 8.8667 5.91034 9.29088 6.1764C9.74184 6.45921 9.9899 6.88082 10.0607 7.39757C10.1477 8.03362 9.68107 8.66026 9.04207 8.80125C8.85316 8.8429 8.66506 8.84666 8.47596 8.80119C8.11155 8.71357 7.81576 8.3969 7.75806 8.02948C7.73598 7.8888 7.75937 7.751 7.79356 7.61577C7.81532 7.52966 7.87553 7.49604 7.94841 7.51354C8.01822 7.53035 8.06081 7.59125 8.04814 7.67304C8.03804 7.73802 8.03177 7.80231 8.03967 7.8671C8.08326 8.22303 8.38821 8.43691 8.75613 8.37043C8.76528 8.3688 8.77419 8.36604 8.78329 8.36416C9.42397 8.22987 9.4867 7.56811 9.26278 7.1904C9.10366 6.92202 8.85918 6.77218 8.55868 6.71122C7.94923 6.5876 7.44276 6.96906 7.25322 7.41457C7.01526 7.97385 7.11078 8.49129 7.50404 8.94702C8.04224 9.57065 8.9621 9.72086 9.69016 9.31054C10.3095 8.96151 10.6857 8.43334 10.7774 7.72861C10.8688 7.02639 10.687 6.40194 10.2072 5.85897C9.7759 5.37082 9.24052 5.09316 8.61243 4.99287C7.05784 4.74462 5.75251 5.54368 5.19272 6.91287C4.96154 7.47835 4.89129 8.0688 4.95727 8.67657C5.058 9.60445 5.43721 10.3984 6.10844 11.046C6.69908 11.6158 7.40293 11.9769 8.21171 12.1231C9.42874 12.343 10.5767 12.1256 11.6679 11.5628C11.7165 11.5377 11.7607 11.4986 11.8215 11.5046L11.8232 11.5065Z" fill="#FEFEFE"/>
</g>
<defs>
<clipPath id="clip0_18_2505">
<rect width="16" height="16" fill="white"/>
</clipPath>
</defs>
</svg>
