<svg width="16" height="16" viewBox="0 0 16 16" fill="none" xmlns="http://www.w3.org/2000/svg">
<g clip-path="url(#clip0_18_2515)">
<path d="M8.00316 15.6299C12.2153 15.6299 15.63 12.2153 15.63 8.00312C15.63 3.79094 12.2153 0.376302 8.00316 0.376302C3.79098 0.376302 0.376343 3.79094 0.376343 8.00312C0.376343 12.2153 3.79098 15.6299 8.00316 15.6299Z" fill="#E0306A"/>
<path d="M8.75179 11.5545C7.55057 11.5545 6.34934 11.5516 5.14812 11.5569C4.9089 11.5579 4.79964 11.4933 4.80002 11.2137C4.80291 9.11654 4.79839 7.01942 4.7962 4.92224C4.7962 4.89219 4.79532 4.86209 4.79695 4.83217C4.80535 4.67643 4.88639 4.59333 5.04193 4.58787C5.1569 4.58386 5.27212 4.58668 5.38727 4.58662C5.57744 4.58656 5.76805 4.59458 5.95778 4.5848C6.25865 4.56924 6.31723 4.6945 6.31403 4.93327C6.30644 5.49876 6.31159 6.06438 6.31159 6.62999C6.31159 6.7501 6.30989 6.87027 6.31234 6.99032C6.31648 7.19253 6.38597 7.26159 6.58367 7.26428C6.62368 7.26485 6.66382 7.26579 6.70378 7.26359C6.84609 7.25581 6.92324 7.18093 6.92694 7.03573C6.93139 6.86068 6.92844 6.68537 6.9285 6.51019C6.92857 5.99469 6.9285 5.47913 6.92857 4.96363C6.92857 4.92362 6.92775 4.88354 6.92913 4.84352C6.93534 4.67167 7.01682 4.59069 7.1925 4.58731C7.33757 4.58449 7.48277 4.58656 7.6279 4.58656C7.8081 4.58656 7.98829 4.58511 8.16843 4.58712C8.36173 4.58925 8.44088 4.66684 8.44139 4.86215C8.44314 5.54286 8.44208 6.22356 8.44251 6.9042C8.44258 6.95921 8.44032 7.01491 8.44816 7.06903C8.46509 7.1867 8.54061 7.25481 8.66059 7.26265C8.72538 7.26685 8.79086 7.26698 8.85565 7.26278C8.98229 7.25469 9.05692 7.18268 9.0711 7.05599C9.07662 7.00644 9.07493 6.95601 9.07499 6.90602C9.07518 6.25536 9.07511 5.6047 9.07518 4.95403C9.07518 4.91402 9.07449 4.87394 9.07555 4.83392C9.08057 4.64583 9.16286 4.56184 9.35447 4.56021C9.66977 4.55752 9.98513 4.55726 10.3004 4.56034C10.4903 4.56222 10.5729 4.64689 10.5734 4.83863C10.5749 5.52435 10.5739 6.21001 10.5743 6.89574C10.5743 6.95074 10.5719 7.00638 10.579 7.06063C10.5956 7.1882 10.6702 7.25625 10.7986 7.26309C10.8635 7.26654 10.9289 7.26698 10.9937 7.26259C11.1127 7.2545 11.1871 7.18507 11.2031 7.06621C11.2104 7.01202 11.2083 6.95632 11.2083 6.90132C11.2086 6.26069 11.2085 5.62 11.2086 4.97937C11.2086 4.93434 11.2077 4.88924 11.2092 4.84427C11.2151 4.6674 11.291 4.58894 11.4688 4.58756C11.7991 4.58499 12.1295 4.5848 12.4598 4.58768C12.6342 4.58919 12.7147 4.67229 12.7222 4.84603C12.7236 4.87601 12.7228 4.90605 12.7228 4.9361C12.7208 7.01823 12.7188 9.10036 12.7167 11.1825C12.7166 11.2325 12.7187 11.283 12.7135 11.3325C12.6992 11.4667 12.6242 11.5405 12.4907 11.5524C12.441 11.5569 12.3906 11.5544 12.3406 11.5544C11.1442 11.5545 9.948 11.5545 8.75179 11.5545Z" fill="#FEFEFE"/>
<path d="M4.29798 9.09855C4.29798 9.79362 4.29805 10.4887 4.2978 11.1838C4.2978 11.2387 4.29924 11.2941 4.29309 11.3486C4.27867 11.476 4.20974 11.5452 4.08191 11.564C4.04748 11.5691 4.01192 11.5663 3.97723 11.5701C3.7912 11.5905 3.67705 11.5199 3.59094 11.3423C3.35542 10.8566 3.09939 10.3808 2.84864 9.90257C2.80335 9.81614 2.77701 9.72971 2.77751 9.63136C2.77927 9.27636 2.77839 8.9213 2.77544 8.56624C2.77463 8.46846 2.79645 8.37996 2.84155 8.29328C3.10441 7.78757 3.36715 7.28179 3.62474 6.77344C3.67937 6.66562 3.75351 6.61413 3.87249 6.62021C3.9423 6.62379 4.01292 6.61745 4.08222 6.62448C4.21362 6.63778 4.28908 6.71655 4.302 6.84845C4.30639 6.89305 4.30432 6.9384 4.30432 6.98337C4.30444 7.68847 4.30438 8.39351 4.30438 9.09861C4.30225 9.09855 4.30012 9.09855 4.29798 9.09855Z" fill="#FEFEFE"/>
</g>
<defs>
<clipPath id="clip0_18_2515">
<rect width="16" height="16" fill="white"/>
</clipPath>
</defs>
</svg>
