<svg width="16" height="16" viewBox="0 0 16 16" fill="none" xmlns="http://www.w3.org/2000/svg">
<g clip-path="url(#clip0_18_2520)">
<path d="M8.00316 15.6299C12.2153 15.6299 15.63 12.2153 15.63 8.00312C15.63 3.79094 12.2153 0.376302 8.00316 0.376302C3.79098 0.376302 0.376343 3.79094 0.376343 8.00312C0.376343 12.2153 3.79098 15.6299 8.00316 15.6299Z" fill="#5B5466"/>
<path fill-rule="evenodd" clip-rule="evenodd" d="M6.74401 11.9091C6.96604 11.9387 7.19359 11.9542 7.42522 11.9542C9.89139 11.9542 11.8905 10.2109 11.8905 8.06066C11.8905 5.91029 9.89133 4.16716 7.42522 4.16716C7.25976 4.16716 7.09631 4.17507 6.93568 4.19031C8.15899 4.9984 8.96789 6.39832 8.96789 7.98985C8.96777 9.66311 8.07387 11.1244 6.74401 11.9091ZM8.00312 12.8554C10.683 12.8554 12.8554 10.683 12.8554 8.00315C12.8554 5.32329 10.683 3.1509 8.00312 3.1509C5.32327 3.1509 3.15088 5.32329 3.15088 8.00315C3.15088 10.683 5.32327 12.8554 8.00312 12.8554Z" fill="white"/>
</g>
<defs>
<clipPath id="clip0_18_2520">
<rect width="16" height="16" fill="white"/>
</clipPath>
</defs>
</svg>
