<svg width="16" height="16" viewBox="0 0 16 16" fill="none" xmlns="http://www.w3.org/2000/svg">
<g clip-path="url(#clip0_18_2506)">
<path d="M8.00316 15.6299C12.2153 15.6299 15.63 12.2153 15.63 8.00309C15.63 3.79091 12.2153 0.376274 8.00316 0.376274C3.79098 0.376274 0.376343 3.79091 0.376343 8.00309C0.376343 12.2153 3.79098 15.6299 8.00316 15.6299Z" fill="#919AA2"/>
<path fill-rule="evenodd" clip-rule="evenodd" d="M12.7881 8.02126C12.7881 10.6555 10.6556 12.788 8.02134 12.788C5.38707 12.788 3.25458 10.6555 3.25458 8.02126C3.25458 5.387 5.38707 3.25451 8.02134 3.25451C10.6556 3.25451 12.7881 5.387 12.7881 8.02126ZM11.0273 7.99994C11.0273 9.66222 9.67898 11.0105 8.0167 11.0105C6.35441 11.0105 5.01533 9.653 5.01533 7.99994C5.01533 6.34688 6.36363 4.98935 8.02591 4.98935C9.6882 4.98935 11.0273 6.33766 11.0273 7.99994Z" fill="white"/>
</g>
<defs>
<clipPath id="clip0_18_2506">
<rect width="16" height="16" fill="white"/>
</clipPath>
</defs>
</svg>
