<svg width="16" height="16" viewBox="0 0 16 16" fill="none" xmlns="http://www.w3.org/2000/svg">
<g clip-path="url(#clip0_18_2513)">
<path d="M8.00313 15.6299C12.2153 15.6299 15.6299 12.2153 15.6299 8.00309C15.6299 3.79091 12.2153 0.376274 8.00313 0.376274C3.79095 0.376274 0.376312 3.79091 0.376312 8.00309C0.376312 12.2153 3.79095 15.6299 8.00313 15.6299Z" fill="#B567CE"/>
<path d="M8.05499 3.0578C9.28544 3.07731 10.4671 3.42045 11.496 4.21669C12.1683 4.73708 12.6777 5.38573 12.9457 6.19903C13.3511 7.42948 13.148 8.57407 12.4107 9.6294C12.1683 9.97637 11.8744 10.2776 11.5406 10.5371C11.4428 10.6131 11.4211 10.6833 11.4534 10.8047C11.5763 11.2666 11.5441 11.7218 11.3512 12.1615C11.246 12.4015 11.0964 12.6084 10.8794 12.7614C10.5252 13.0109 10.0985 13.011 9.74568 12.7602C9.49693 12.5832 9.34107 12.3375 9.23044 12.0584C9.21168 12.0112 9.21043 11.9267 9.16439 11.927C9.1001 11.9274 9.10989 12.0149 9.09025 12.0641C8.99053 12.3141 8.84427 12.5276 8.62405 12.6863C8.2106 12.9844 7.66594 12.9535 7.28729 12.6118C7.11186 12.4535 6.98548 12.2629 6.90507 12.0412C6.89259 12.0067 6.88155 11.9714 6.86587 11.9384C6.85421 11.9137 6.83244 11.9115 6.82027 11.9373C6.80027 11.98 6.78459 12.0246 6.76797 12.0688C6.68511 12.2884 6.56387 12.4829 6.39447 12.6466C5.97656 13.0505 5.39966 13.0494 4.98332 12.6415C4.67987 12.3441 4.53549 11.9718 4.4951 11.5574C4.46895 11.2895 4.47716 11.0202 4.56165 10.7611C4.59156 10.6692 4.56585 10.618 4.49366 10.5622C4.05229 10.2211 3.68456 9.81274 3.39856 9.33299C3.01728 8.69355 2.8278 8.0008 2.85866 7.25662C2.89617 6.3515 3.23254 5.55997 3.81897 4.87469C4.50727 4.07036 5.38341 3.56427 6.39371 3.27801C6.91755 3.12936 7.45381 3.06501 8.05499 3.0578ZM7.99766 9.75284C8.4002 9.75453 8.79472 9.69996 9.17944 9.58136C9.73276 9.41082 10.2219 9.13504 10.6093 8.69644C11.2669 7.95219 11.2892 6.97689 10.6661 6.20348C10.4659 5.95499 10.2229 5.75535 9.94934 5.59277C9.45209 5.29724 8.91225 5.14169 8.33692 5.09496C7.6071 5.03563 6.91097 5.15348 6.25579 5.48232C5.77585 5.72323 5.37444 6.05653 5.11622 6.53735C4.81987 7.0891 4.80412 7.65233 5.07664 8.21807C5.29642 8.6743 5.65029 9.00508 6.08161 9.25684C6.67301 9.60206 7.3169 9.75008 7.99766 9.75284Z" fill="#FEFEFE"/>
</g>
<defs>
<clipPath id="clip0_18_2513">
<rect width="16" height="16" fill="white"/>
</clipPath>
</defs>
</svg>
