<svg width="16" height="16" viewBox="0 0 16 16" fill="none" xmlns="http://www.w3.org/2000/svg">
<g clip-path="url(#clip0_18_2510)">
<path d="M8.00316 15.6299C12.2153 15.6299 15.63 12.2153 15.63 8.00309C15.63 3.79091 12.2153 0.376274 8.00316 0.376274C3.79098 0.376274 0.376343 3.79091 0.376343 8.00309C0.376343 12.2153 3.79098 15.6299 8.00316 15.6299Z" fill="#C8B686"/>
<path fill-rule="evenodd" clip-rule="evenodd" d="M10.8882 7.77985C10.8876 7.77903 10.8874 7.77797 10.8876 7.77696L11.5626 3.84087C11.5629 3.83906 11.5644 3.83774 11.5663 3.83774H11.7799C11.7815 3.83774 11.783 3.8388 11.7835 3.84037L13.3042 8.65549C13.3047 8.65699 13.3042 8.65862 13.303 8.65963L12.1817 9.53508C12.18 9.5364 12.1776 9.53602 12.1763 9.53433L10.8882 7.77985ZM2.70184 10.3892C2.70184 10.3908 2.70291 10.3923 2.70441 10.3928L5.01585 11.1486C5.01698 11.1489 5.01824 11.1488 5.01918 11.1481L10.1857 7.58121C10.1866 7.58058 10.1872 7.57971 10.1873 7.57864L10.7414 3.86107C10.7417 3.85881 10.7399 3.85674 10.7377 3.85674H6.16138C6.16025 3.85674 6.15919 3.85724 6.1585 3.85812L2.70272 8.02697C2.70216 8.02766 2.70184 8.02847 2.70184 8.02941V10.3892ZM5.97905 11.3411L8.50424 12.1683C8.50537 12.1687 8.50663 12.1685 8.50763 12.1678L11.514 10.0113C11.5157 10.0101 11.5161 10.0078 11.515 10.0061L10.3879 8.32903C10.3867 8.32727 10.3844 8.32683 10.3827 8.32802L5.97905 11.3411Z" fill="white"/>
</g>
<defs>
<clipPath id="clip0_18_2510">
<rect width="16" height="16" fill="white"/>
</clipPath>
</defs>
</svg>
