<svg width="16" height="16" viewBox="0 0 16 16" fill="none" xmlns="http://www.w3.org/2000/svg">
<g clip-path="url(#clip0_18_2507)">
<path d="M8.00316 15.6299C12.2153 15.6299 15.63 12.2153 15.63 8.00309C15.63 3.79091 12.2153 0.376274 8.00316 0.376274C3.79098 0.376274 0.376343 3.79091 0.376343 8.00309C0.376343 12.2153 3.79098 15.6299 8.00316 15.6299Z" fill="#E87236"/>
<path fill-rule="evenodd" clip-rule="evenodd" d="M5.20896 10.9043C5.20626 10.9043 5.20438 10.9017 5.20525 10.8991L7.73214 4.44924C7.7327 4.44767 7.73415 4.44667 7.73584 4.44667H10.935C10.9367 4.44667 10.9382 4.44773 10.9387 4.4493L13.428 10.8992C13.4289 10.9017 13.427 10.9043 13.4243 10.9043H5.20896ZM2.21769 10.9323C2.21499 10.9323 2.21311 10.9296 2.21405 10.927L4.15839 5.90354C4.15895 5.90203 4.16039 5.90103 4.16203 5.90103H5.79696C5.79966 5.90103 5.80154 5.90373 5.8006 5.90624L3.91842 10.9297C3.91785 10.9312 3.91641 10.9323 3.91478 10.9323H2.21769Z" fill="white"/>
</g>
<defs>
<clipPath id="clip0_18_2507">
<rect width="16" height="16" fill="white"/>
</clipPath>
</defs>
</svg>
