<svg width="16" height="16" viewBox="0 0 16 16" fill="none" xmlns="http://www.w3.org/2000/svg">
<g clip-path="url(#clip0_18_2509)">
<path d="M8.00313 15.6299C12.2153 15.6299 15.6299 12.2153 15.6299 8.00312C15.6299 3.79094 12.2153 0.376302 8.00313 0.376302C3.79095 0.376302 0.376312 3.79094 0.376312 8.00312C0.376312 12.2153 3.79095 15.6299 8.00313 15.6299Z" fill="#38BF4B"/>
<path d="M8.54954 10.2684C8.15321 10.2684 7.75694 10.2684 7.36061 10.2684C7.3236 10.2684 7.2866 10.2685 7.24965 10.2679C7.20337 10.2671 7.17433 10.2547 7.20732 10.2023C7.22419 10.1755 7.24075 10.1485 7.25749 10.1216C7.58703 9.59248 7.91794 9.06413 8.2449 8.53339C8.29853 8.44639 8.3568 8.39954 8.46656 8.38819C9.11791 8.32083 9.7682 8.24337 10.4188 8.16885C10.4554 8.16465 10.4928 8.1602 10.5274 8.14878C10.6072 8.12244 10.6519 8.06606 10.6503 8.00183C10.6487 7.93836 10.6023 7.87915 10.5252 7.85494C10.4752 7.8392 10.4223 7.83066 10.3701 7.82433C9.9139 7.76889 9.45754 7.7147 9.00125 7.66013C8.76812 7.63222 8.81673 7.62043 8.90573 7.47818C9.34289 6.77953 9.78074 6.08126 10.218 5.38268C10.2488 5.33345 10.2782 5.28333 10.3063 5.23253C10.3295 5.19045 10.3441 5.14478 10.3417 5.09605C10.3358 4.97538 10.2382 4.91811 10.131 4.97324C10.064 5.00762 10.0145 5.06344 9.96363 5.11731C9.39444 5.72081 8.82519 6.32418 8.25575 6.92749C8.09437 7.09847 8.11444 7.09401 8.03052 6.88202C7.86538 6.46461 7.7013 6.04677 7.53604 5.62943C7.51665 5.58044 7.49715 5.53064 7.47024 5.48567C7.42395 5.40815 7.34894 5.37127 7.28773 5.3882C7.22488 5.40558 7.17978 5.47626 7.17959 5.56439C7.17953 5.60114 7.1858 5.63808 7.19107 5.67465C7.28208 6.30706 7.37221 6.93959 7.46573 7.57163C7.4831 7.68898 7.46127 7.77767 7.37277 7.86874C6.94565 8.30828 6.52711 8.75611 6.10557 9.20105C6.08374 9.22406 6.06279 9.24796 6.0399 9.26985C5.98069 9.32642 5.97292 9.3263 5.95165 9.24689C5.83694 8.81845 5.72366 8.38963 5.61133 7.96056C5.50972 7.57238 5.41 7.1837 5.3094 6.79528C5.29077 6.72333 5.27114 6.65227 5.21111 6.60084C5.12036 6.52301 5.01411 6.54816 4.96845 6.65949C4.94543 6.71556 4.95208 6.77357 4.95766 6.83159C4.9968 7.23639 5.03593 7.64112 5.07463 8.04598C5.1218 8.54016 5.16865 9.0344 5.21525 9.52863C5.22961 9.68111 5.23946 9.83402 5.25771 9.98599C5.26599 10.055 5.25094 10.1058 5.20214 10.1567C4.89876 10.4734 4.59871 10.7933 4.2964 11.1109C4.21843 11.1928 4.21455 11.1927 4.14022 11.1072C3.70193 10.6035 3.39956 10.0268 3.25003 9.37716C2.95919 8.11347 3.15244 6.93201 3.88909 5.85378C4.21912 5.37064 4.65177 4.99852 5.15146 4.69433C6.03683 4.15531 6.99557 3.81059 7.99854 3.57232C8.76511 3.39018 9.53814 3.24674 10.3232 3.17718C10.7495 3.13942 11.1773 3.12305 11.6056 3.12983C11.7227 3.13171 11.7246 3.13227 11.7549 3.2468C11.8686 3.67587 11.9632 4.10921 12.0329 4.54762C12.1985 5.58897 12.2559 6.63753 12.2273 7.69061C12.2098 8.33575 12.156 8.97751 11.9783 9.60233C11.8165 10.1713 11.5693 10.7032 11.231 11.1856C10.6815 11.969 9.92236 12.469 9.00514 12.7173C7.97414 12.9964 6.96509 12.9128 5.98991 12.4682C5.95629 12.4529 5.92324 12.4364 5.89056 12.4191C5.86165 12.4039 5.8587 12.3788 5.8725 12.3524C5.88718 12.3245 5.9048 12.298 5.92148 12.2711C6.13059 11.9347 6.34209 11.5997 6.54731 11.2608C6.59861 11.1761 6.65958 11.138 6.75893 11.1231C7.50029 11.0113 8.24064 10.8927 8.9813 10.7761C9.25778 10.7326 9.53419 10.689 9.81041 10.6441C9.86228 10.6356 9.91515 10.6256 9.96382 10.6066C10.0416 10.5763 10.0891 10.5041 10.0834 10.4369C10.0767 10.3583 10.0243 10.3171 9.95767 10.2886C9.89727 10.2628 9.83349 10.2669 9.7702 10.2669C9.36333 10.2669 8.95647 10.2669 8.5496 10.2669C8.54954 10.2671 8.54954 10.2678 8.54954 10.2684Z" fill="#FEFEFE"/>
</g>
<defs>
<clipPath id="clip0_18_2509">
<rect width="16" height="16" fill="white"/>
</clipPath>
</defs>
</svg>
