<svg width="16" height="16" viewBox="0 0 16 16" fill="none" xmlns="http://www.w3.org/2000/svg">
<g clip-path="url(#clip0_18_2508)">
<path d="M8.00316 15.6299C12.2153 15.6299 15.63 12.2153 15.63 8.00312C15.63 3.79094 12.2153 0.376302 8.00316 0.376302C3.79098 0.376302 0.376343 3.79094 0.376343 8.00312C0.376343 12.2153 3.79098 15.6299 8.00316 15.6299Z" fill="#83C300"/>
<path d="M8.3198 8.89261C8.2939 8.22181 8.47943 7.52587 8.71444 6.83851C8.73934 6.76569 8.78525 6.73684 8.85186 6.72398C8.99932 6.69545 9.14251 6.65148 9.284 6.60187C9.8934 6.38805 10.4044 6.02691 10.8436 5.55857C10.8656 5.53512 10.887 5.51116 10.9088 5.48757C11.0049 5.38358 11.0062 5.38227 11.1048 5.48024C11.6432 6.01587 12.0258 6.64621 12.2371 7.37603C12.8315 9.42943 11.8819 11.5945 9.97048 12.5514C9.91792 12.5778 9.86392 12.6014 9.80992 12.6249C9.68761 12.6779 9.68887 12.6763 9.59723 12.571C8.90103 11.7709 8.51072 10.8378 8.3787 9.7897C8.34382 9.51291 8.32018 9.23625 8.3198 8.89261Z" fill="#FEFEFE"/>
<path d="M7.69609 8.86033C7.67232 9.76557 7.54524 10.5538 7.22267 11.3025C7.01952 11.7739 6.72925 12.19 6.40072 12.581C6.31793 12.6795 6.31461 12.6795 6.19876 12.6263C5.19504 12.1656 4.45726 11.4353 3.99194 10.4342C3.68361 9.77078 3.55484 9.06906 3.60314 8.3405C3.67652 7.23304 4.10973 6.28345 4.89066 5.49355C4.89819 5.48596 4.90578 5.47837 4.91362 5.47103C5.004 5.38586 5.00638 5.38379 5.08798 5.47499C5.33184 5.7477 5.60241 5.98961 5.90686 6.19301C6.27566 6.43938 6.67537 6.61713 7.1084 6.71158C7.22399 6.7368 7.27975 6.78911 7.31481 6.89855C7.46038 7.35252 7.60383 7.80687 7.65356 8.28361C7.67689 8.50696 7.68693 8.73169 7.69609 8.86033Z" fill="#FEFEFE"/>
<path d="M8.00745 5.98679C7.09179 5.98742 6.35413 5.62922 5.75108 4.97423C5.66521 4.88103 5.66615 4.87601 5.77416 4.81134C6.00434 4.67367 6.24676 4.56146 6.4987 4.46983C6.54894 4.45158 6.60037 4.43634 6.65005 4.41664C6.7282 4.38566 6.73065 4.37594 6.68248 4.30124C6.6651 4.27433 6.64453 4.24949 6.6254 4.22371C6.42143 3.94868 6.21728 3.67384 6.01381 3.39844C5.98208 3.35547 5.94821 3.31282 5.92487 3.26528C5.85889 3.131 5.90035 2.97758 6.01971 2.89529C6.13656 2.81476 6.27975 2.82668 6.38568 2.93092C6.42733 2.97188 6.46195 3.02036 6.49701 3.06752C6.76201 3.42384 7.02919 3.77859 7.28879 4.13879C7.35076 4.22478 7.41461 4.252 7.51754 4.23764C7.84218 4.19223 8.16851 4.19148 8.49309 4.23795C8.59777 4.25294 8.6598 4.22077 8.72089 4.13634C8.98752 3.76799 9.26085 3.40452 9.53224 3.03961C9.56091 3.0011 9.58913 2.96115 9.62363 2.92816C9.73364 2.82298 9.88693 2.8157 10.0037 2.90652C10.115 2.9932 10.148 3.13645 10.0824 3.26666C10.0609 3.30925 10.0312 3.34807 10.0027 3.38671C9.79918 3.66205 9.59496 3.93689 9.391 4.21192C9.37187 4.2377 9.35205 4.26304 9.33392 4.28951C9.27032 4.38252 9.27082 4.38478 9.37011 4.42172C9.41521 4.43853 9.46131 4.45252 9.50659 4.46883C9.75879 4.5599 10.0008 4.67304 10.2315 4.80965C10.3444 4.87645 10.3454 4.87971 10.2621 4.97015C9.65085 5.6343 8.90328 5.9945 8.00745 5.98679Z" fill="#FEFEFE"/>
</g>
<defs>
<clipPath id="clip0_18_2508">
<rect width="16" height="16" fill="white"/>
</clipPath>
</defs>
</svg>
