<svg width="16" height="16" viewBox="0 0 16 16" fill="none" xmlns="http://www.w3.org/2000/svg">
<g clip-path="url(#clip0_18_2504)">
<path d="M8.00316 15.6299C12.2153 15.6299 15.63 12.2153 15.63 8.00309C15.63 3.79091 12.2153 0.376274 8.00316 0.376274C3.79098 0.376274 0.376343 3.79091 0.376343 8.00309C0.376343 12.2153 3.79098 15.6299 8.00316 15.6299Z" fill="#5A8EA2"/>
<path fill-rule="evenodd" clip-rule="evenodd" d="M2.78079 8.00208C2.77941 7.9997 2.77941 7.99675 2.78079 7.99437L5.40771 3.50621C5.40909 3.50389 5.4116 3.50251 5.41424 3.50251H10.6209C10.6236 3.50251 10.6261 3.50389 10.6275 3.50634L13.2256 7.99449C13.2269 7.99681 13.2269 7.99983 13.2256 8.00215L10.6275 12.4853C10.6261 12.4877 10.6236 12.4892 10.6209 12.4892H5.41424C5.41148 12.4892 5.40903 12.4878 5.40771 12.4855L2.78079 8.00208ZM10.4233 7.99569C10.4233 9.33188 9.34016 10.4151 8.00397 10.4151C6.66777 10.4151 5.58458 9.33188 5.58458 7.99569C5.58458 6.65949 6.66777 5.5763 8.00397 5.5763C9.34016 5.5763 10.4233 6.65949 10.4233 7.99569Z" fill="white"/>
</g>
<defs>
<clipPath id="clip0_18_2504">
<rect width="16" height="16" fill="white"/>
</clipPath>
</defs>
</svg>
