<svg width="16" height="16" viewBox="0 0 16 16" fill="none" xmlns="http://www.w3.org/2000/svg">
<g clip-path="url(#clip0_18_2516)">
<path d="M8.00316 15.6299C12.2153 15.6299 15.63 12.2153 15.63 8.00309C15.63 3.79091 12.2153 0.376274 8.00316 0.376274C3.79098 0.376274 0.376343 3.79091 0.376343 8.00309C0.376343 12.2153 3.79098 15.6299 8.00316 15.6299Z" fill="#4CD1C0"/>
<path d="M5.01815 6.67913L7.74242 8.0046L5.01815 9.32706L2.29382 8.00492L5.01815 6.67913Z" fill="white"/>
<path d="M10.9881 6.67915L8.26385 8.00462L10.9881 9.32708L13.7124 8.00493L10.9881 6.67915Z" fill="white"/>
<path d="M10.9881 3.26942L8.26385 4.70334V7.51109L8.28455 7.5008L8.32325 7.48155L10.9874 6.15589L10.9873 6.15582L10.9881 6.15545V3.26942Z" fill="white"/>
<path d="M10.9881 12.7368L8.26385 11.3029V8.49518L8.28455 8.50546L8.32325 8.52472L10.9874 9.85038L10.9873 9.85044L10.9881 9.85082V12.7368Z" fill="white"/>
<path d="M5.01813 3.26939L7.74239 4.7033V7.51105L7.72169 7.50076L7.683 7.48151L5.01888 6.15585L5.01894 6.15578L5.01813 6.15541V3.26939Z" fill="white"/>
<path d="M5.01813 12.7368L7.74239 11.3029V8.49518L7.72169 8.50546L7.683 8.52472L5.01888 9.85038L5.01894 9.85044L5.01813 9.85082V12.7368Z" fill="white"/>
</g>
<defs>
<clipPath id="clip0_18_2516">
<rect width="16" height="16" fill="white"/>
</clipPath>
</defs>
</svg>
